<svg xmlns="http://www.w3.org/2000/svg" width="22.327" height="32.149" viewBox="0 0 22.327 32.149"><g transform="translate(-1625.099 -434.105)"><path d="M1647.4,462.279a.607.607,0,0,0-.294-.675q-.714-10.053-1-20.122-.1-3.332-.143-6.664c-.011-.784-1.447-1.01-1.436-.225,0,.165-1.3-.166-1.3,0h-16.312a.637.637,0,0,0-.659.353c-.416-.078-.916.111-.916.57v29.331a.584.584,0,0,0,.018.963c.138.531,1.044.586,1.347.168q7.469.272,14.949.184,2.255-.028,4.509-.09a.728.728,0,0,0,.578-.264c.341-.044.656-.3.632-.6q-.1-1.318-.2-2.636A.565.565,0,0,0,1647.4,462.279Zm-2.876-26.467c.133,7.344.434,15.408.907,22.743q.092,1.417.193,2.835c-4.743-.516-9.516-.824-14.3-.9q-2.209-.034-4.418,0a1.008,1.008,0,0,0-.1.01V435.8a.938.938,0,0,0,.109.013C1632.789,436.053,1638.658,435.571,1644.528,435.812Zm-14.217,29.062q-1.75-.043-3.5-.109V461.7a.968.968,0,0,0,.1.007,153.186,153.186,0,0,1,15.329.565q1.742.152,3.477.349.082,1.121.168,2.241Q1638.1,465.063,1630.311,464.874Z" fill="#fff"/><path d="M1661.935,551.191a.734.734,0,0,0,0,1.466A.734.734,0,0,0,1661.935,551.191Z" transform="translate(-25.535 -89.166)" fill="#fff"/></g></svg>