<svg xmlns="http://www.w3.org/2000/svg" width="31.405" height="22" viewBox="0 0 31.405 22"><path d="M1026,33.624q-.1-1.231-.192-2.461-.194-2.5-.389-4.992-.438-5.624-.876-11.249c-.027-.344-.3-.755-.706-.706-3.784.464-7.566.955-11.354,1.385a35.348,35.348,0,0,1-10.993-.129,27.1,27.1,0,0,1-5.652-1.784.728.728,0,0,0-.966.253.705.705,0,0,0-.086.324.686.686,0,0,0,.1.646.666.666,0,0,0-.213.491q-.193,8.44.219,16.879a.727.727,0,0,0,.706.706l19.885,1.808,4.971.452,2.451.223,1.26.115a2.285,2.285,0,0,0,1.011-.074C1026.006,35.206,1026.059,34.379,1026,33.624Zm-20.155-16.24a75.1,75.1,0,0,0,11.479-.956l5.226-.641a6.743,6.743,0,0,1-3.176,3.541c-1.941,1.251-3.961,2.39-5.943,3.576a7.132,7.132,0,0,1-1.44.8,1.8,1.8,0,0,1-1.3-.273c-1.013-.491-2.014-1.011-3-1.549q-2.94-1.6-5.731-3.456-1.553-1.033-3.053-2.141A28.3,28.3,0,0,0,1005.845,17.384ZM1024.456,34.2c-.4-.019-.8-.07-1.2-.106l-2.451-.223-4.761-.433-9.592-.872-10.176-.925q-.364-7.871-.2-15.754a76.957,76.957,0,0,0,10.616,7.061q1.564.86,3.168,1.646a4.508,4.508,0,0,0,1.717.569,3.152,3.152,0,0,0,1.743-.545c2.146-1.26,4.294-2.528,6.407-3.842a10.611,10.611,0,0,0,3.606-3.259q.277,3.556.554,7.111.186,2.39.372,4.781.093,1.2.186,2.39l.093,1.2a9.85,9.85,0,0,1,.082,1.158.28.28,0,0,1,0,.055h-.009Zm.214.007c0-.006.006-.008.01,0C1024.668,34.181,1024.8,34.2,1024.67,34.2Z" transform="translate(-994.612 -13.607)" fill="#fff"/></svg>