<svg xmlns="http://www.w3.org/2000/svg" width="22.377" height="29.832" viewBox="0 0 22.377 29.832"><g transform="translate(-1048.5 -6357)"><g transform="translate(1048.5 6357)"><g transform="translate(0)"><path d="M86.28,28.781l-3.933-8.319a.736.736,0,0,0-.378-.363l-1.957-.871,3.39-5.682.023-.042A9.285,9.285,0,0,0,81.679,2.672,9.281,9.281,0,0,0,66.9,13.5q.011.021.023.042l3.39,5.682-1.968.876a.736.736,0,0,0-.366.358l-3.933,8.319a.736.736,0,0,0,.965.987l4.927-2.193,4.927,2.193a.737.737,0,0,0,.6,0l4.927-2.193,4.927,2.193a.736.736,0,0,0,.965-.987ZM68.2,12.813a7.721,7.721,0,0,1-.843-3.581,7.847,7.847,0,0,1,7.7-7.759,7.811,7.811,0,0,1,7.075,11.34L75.795,23.426a.736.736,0,0,1-1.264,0ZM80.688,26.1a.737.737,0,0,0-.6,0L75.163,28.29,70.236,26.1a.737.737,0,0,0-.6,0l-3.413,1.52,2.968-6.278,1.88-.836,2.195,3.678a2.208,2.208,0,0,0,3.793,0L79.254,20.5l1.88.837L84.1,27.616Z" transform="translate(-63.974 0)" fill="#fff"/></g></g><g transform="translate(1056.329 6362.015)"><g transform="translate(0)"><path d="M201.7,101.607a3.359,3.359,0,1,0,3.359,3.359A3.363,3.363,0,0,0,201.7,101.607Zm0,5.247a1.887,1.887,0,1,1,1.887-1.887A1.889,1.889,0,0,1,201.7,106.854Z" transform="translate(-198.345 -101.607)" fill="#fff"/></g></g></g></svg>